<svg viewBox="0 0 20 20" xmlns="http://www.w3.org/2000/svg"><path d="m10 14a4 4 0 1 1 0-8 4 4 0 0 1 0 8zm-1-13a1 1 0 1 1 2 0v2a1 1 0 1 1 -2 0zm6.65 1.94a1 1 0 1 1 1.41 1.41l-1.4 1.4a1 1 0 1 1 -1.41-1.41zm3.34 6.06a1 1 0 1 1 0 2h-1.98a1 1 0 1 1 0-2zm-1.93 6.65a1 1 0 1 1 -1.41 1.41l-1.4-1.4a1 1 0 1 1 1.41-1.41zm-6.06 3.34a1 1 0 1 1 -2 0v-1.98a1 1 0 1 1 2 0zm-6.65-1.93a1 1 0 1 1 -1.41-1.41l1.4-1.4a1 1 0 1 1 1.41 1.41zm-3.34-6.06a1 1 0 1 1 0-2h1.98a1 1 0 1 1 0 2zm1.93-6.65a1 1 0 1 1 1.41-1.41l1.4 1.4a1 1 0 1 1 -1.41 1.41z"/></svg>