<svg viewBox="0 0 24 24" xmlns="http://www.w3.org/2000/svg"><path d="m12 16a3 3 0 1 0 -3-3 3 3 0 0 0 3 3zm0-4a1 1 0 1 1 -1 1 1 1 0 0 1 1-1z"/><path d="m10.51 9.29a4 4 0 0 1 3 0l.93.37 2.2-5.56-.92-.37a10 10 0 0 0 -7.43 0l-.92.38 2.21 5.55zm3.51-4-.75 1.88a6 6 0 0 0 -2.54 0l-.73-1.91a8 8 0 0 1 4 0z"/><path d="m3.34 18a9.79 9.79 0 0 0 2.49 2.86l.78.61 3.71-4.7-.78-.62a4 4 0 0 1 -1.54-2.59l-.15-1-5.85.87.14 1a9.79 9.79 0 0 0 1.2 3.57zm2.95-3.17a5.9 5.9 0 0 0 .51 1.17 6 6 0 0 0 .75 1l-1.24 1.62a8 8 0 0 1 -2-3.5z"/><path d="m16.1 12.58-.15 1a4 4 0 0 1 -1.49 2.58l-.78.62 3.71 4.7.78-.61a9.91 9.91 0 0 0 3.72-6.44l.14-1zm2.83 4.42a7.88 7.88 0 0 1 -1.23 1.62l-1.26-1.62a6 6 0 0 0 .75-1 5.9 5.9 0 0 0 .52-1.17l2 .29a7.85 7.85 0 0 1 -.78 1.88z"/></svg>