<svg enable-background="new 0 0 64 64" height="64" viewBox="0 0 64 64" width="64" xmlns="http://www.w3.org/2000/svg"><g fill="#241f20"><path d="m57.809.117h-51.619c-2.885 0-5.224 2.359-5.224 5.269v19.784 9.467 5.268h5.224 51.618 5.225v-5.268-9.467-19.785c0-2.909-2.339-5.268-5.224-5.268zm1.918 24.154v7.741 4.307h-4.647-45.895-4.644v-4.307-7.741-16.175c0-2.379 2.079-4.307 4.644-4.307h45.895c2.568 0 4.647 1.928 4.647 4.307z"/><path d="m54.354 15.559c0 .955-.773 1.728-1.729 1.728h-41.251c-.955 0-1.728-.773-1.728-1.728v-1.512c0-.954.772-1.728 1.728-1.728h41.252c.955 0 1.729.773 1.729 1.728v1.512z"/><path d="m54.354 25.926c0 .954-.773 1.728-1.729 1.728h-41.251c-.955 0-1.728-.774-1.728-1.728v-1.512c0-.954.772-1.728 1.728-1.728h41.252c.955 0 1.729.774 1.729 1.728v1.512z"/><path d="m20.487 58.911h-2.043v-1.728-.253-8.252c0-1.624-1.296-1.781-1.725-1.789h-.443s-1.863-.073-1.863 1.952v8.089.253 1.728h-1.89s-1.062.074-.002 1.2l3.22 3.414s.003.004.003.006l.061.063c.173.174.699.586 1.354-.069l3.335-3.345c1.187-1.196-.007-1.269-.007-1.269z"/><path d="m35.795 58.911h-1.819v-1.728-.253-8.036c0-1.607-.936-1.947-1.53-2.005h-.8c-.566.038-1.7.312-1.7 1.871v8.17.253 1.728h-1.961c-.28.005-1.091.12.084 1.368l2.787 2.956.002.004.23.243c.313.271.931.571 1.745-.247.002 0 .002 0 .004-.001l2.96-2.971c1.26-1.265-.002-1.352-.002-1.352z"/><path d="m51.427 58.911h-1.81v-1.728-.253-8.225c0-1.479-.985-1.772-1.576-1.816h-.705c-.543.028-1.75.274-1.75 1.952v8.089.253 1.728h-1.88s-1.174.12 0 1.363v.002l3.033 3.216s.008.009.01.013l.028.028c.148.152.74.664 1.442-.041.003-.001.003-.001.004-.001l3.204-3.217c1.175-1.18 0-1.363 0-1.363z"/></g></svg>