<svg viewBox="0 0 512 512" xmlns="http://www.w3.org/2000/svg"><path d="m267.6453 293.9316c-.1329-.0117-.2609-.04-.3969-.04s-.2642.0282-.3971.04a53.4268 53.4268 0 0 0 -50.4477-36.0395 2.5 2.5 0 0 0 -2.5 2.5 53.4068 53.4068 0 0 0 48.8448 53.14v30.7248a97.07 97.07 0 0 0 -48.04 15.26 4.5 4.5 0 1 0 4.8633 7.5723 88.433 88.433 0 0 1 95.3525 0 4.5 4.5 0 1 0 4.8633-7.5723 97.0635 97.0635 0 0 0 -48.039-15.26v-30.7243a53.4059 53.4059 0 0 0 48.8437-53.14 2.5 2.5 0 0 0 -2.5-2.5 53.4256 53.4256 0 0 0 -50.4469 36.039z"/><path d="m246.5657 235.8833a4.5 4.5 0 0 0 9 0 4.5888 4.5888 0 0 1 1.1983-3.208 13.7976 13.7976 0 0 0 0-16.669 4.8876 4.8876 0 0 1 -.001-6.4106 13.3773 13.3773 0 0 0 2.8027-8.3315 4.5 4.5 0 1 0 -9 0 4.5828 4.5828 0 0 1 -1.1972 3.2026 13.7915 13.7915 0 0 0 -.001 16.6665 4.8922 4.8922 0 0 1 0 6.415 13.3883 13.3883 0 0 0 -2.8018 8.335z"/><path d="m274.931 235.8833a4.5 4.5 0 1 0 9 0 4.5892 4.5892 0 0 1 1.1982-3.208 13.7972 13.7972 0 0 0 0-16.669 4.8879 4.8879 0 0 1 -.001-6.4106 13.3766 13.3766 0 0 0 2.8028-8.3315 4.5 4.5 0 0 0 -9 0 4.5829 4.5829 0 0 1 -1.1973 3.2026 13.7919 13.7919 0 0 0 -.001 16.6665 4.8919 4.8919 0 0 1 0 6.415 13.3884 13.3884 0 0 0 -2.8017 8.335z"/><path d="m396.9083 215.0783-121.3858-90.1983a13.8393 13.8393 0 0 0 -15.73 0l-82.2239 61.0982v-48.8053a23.501 23.501 0 1 0 -47.002 0v140.37a43.7538 43.7538 0 0 0 -20.4619 39.5161 44.2164 44.2164 0 0 0 42.5978 41.711c.4619.0137.9209.021 1.3808.021a44.6876 44.6876 0 0 0 5.5381-.355v35.3921a4.5 4.5 0 0 0 4.5 4.5h206.2529a4.5 4.5 0 0 0 4.5-4.5v-163.9769l7.1238 5.2935a12.5 12.5 0 1 0 14.91-20.0664zm-243.9324 134.6956a35.0227 35.0227 0 0 1 -15.7422-65.7173 4.5007 4.5007 0 0 0 2.333-3.9438v-142.94a14.501 14.501 0 1 1 29.002 0v142.94a4.5007 4.5007 0 0 0 2.333 3.9438 35.0229 35.0229 0 0 1 -17.9258 65.7173zm212.8984 39.5542h-197.2529v-32.9848a44.0446 44.0446 0 0 0 8.9473-78.7979v-60.4211l90.0886-66.9427 98.217 72.982z"/><path d="m158.5677 294.4581v-147.1212a4.5 4.5 0 0 0 -9 0v147.1212a21.1426 21.1426 0 1 0 9 0z"/></svg>