<svg viewBox="0 0 24 24" xmlns="http://www.w3.org/2000/svg"><g fill="#464646"><path d="m17.3 13.35a1 1 0 0 1 -.7-.29 1 1 0 0 1 0-1.41l2.12-2.12a2 2 0 0 0 0-2.83l-1.42-1.42a2.06 2.06 0 0 0 -2.83 0l-2.12 2.12a1 1 0 0 1 -1.41-1.4l2.12-2.12a4.1 4.1 0 0 1 5.66 0l1.41 1.41a4 4 0 0 1 0 5.66l-2.13 2.11a1 1 0 0 1 -.7.29z"/><path d="m8.11 21.3a4 4 0 0 1 -2.83-1.17l-1.41-1.41a4 4 0 0 1 0-5.66l2.13-2.12a1 1 0 0 1 1.4 1.41l-2.12 2.12a2 2 0 0 0 0 2.83l1.42 1.42a2.06 2.06 0 0 0 2.83 0l2.12-2.12a1 1 0 1 1 1.41 1.4l-2.12 2.12a4 4 0 0 1 -2.83 1.18z"/><path d="m8.82 16.18a1 1 0 0 1 -.71-.29 1 1 0 0 1 0-1.42l6.37-6.36a1 1 0 0 1 1.41 0 1 1 0 0 1 0 1.42l-6.37 6.36a1 1 0 0 1 -.7.29z"/></g></svg>