<svg viewBox="0 0 384 512" xmlns="http://www.w3.org/2000/svg"><path d="m112.1 454.3c0 6.297 1.816 12.44 5.284 17.69l17.14 25.69c5.25 7.875 17.17 14.28 26.64 14.28h61.67c9.438 0 21.36-6.401 26.61-14.28l17.08-25.68c2.938-4.438 5.348-12.37 5.348-17.7l.128-39.2h-160zm79.3-454.2868c-101.96.3125-175.4 82.9568-175.4 175.0868 0 44.38 16.44 84.84 43.56 115.8 16.53 18.84 42.34 58.23 52.22 91.45.0313.25.0938.5166.125.7823h160.2c.0313-.2656.0938-.5166.125-.7823 9.875-33.22 35.69-72.61 52.22-91.45 27.15-30.1 43.55-70.5 43.55-115.8 0-96.49-79.1-175.3837-176.6-175.0868zm.6 95.9968c-44.13 0-80 35.89-80 79.1 0 9.69-7.2 16.89-16 16.89s-16-7.2-16-16c0-61.76 50.25-111.1 112-111.1 8.844 0 16 7.159 16 16s-7.2 15.11-16 15.11z"/></svg>