<svg enable-background="new 0 0 512 512" viewBox="0 0 512 512" xmlns="http://www.w3.org/2000/svg"><path d="m236.6 118.7c-56-41.6-135.1-30-176.7 26s-30 135.1 26 176.7 135.1 30 176.7-26 30-135.1-26-176.7zm-118.6 159.5c-32.1-23.9-38.8-69.3-14.9-101.5s69.3-38.8 101.5-14.9 38.8 69.3 14.9 101.5c-24 32.2-69.4 38.8-101.5 14.9z"/><path d="m195 174.7c-25-18.6-60.4-13.4-79.1 11.6-18.6 25-13.4 60.4 11.6 79.1s60.4 13.4 79.1-11.6c18.6-25.1 13.4-60.5-11.6-79.1zm-59.2 79.6c-18.9-14.1-22.8-40.8-8.8-59.7s40.8-22.8 59.7-8.8c18.9 14.1 22.8 40.8 8.8 59.7s-40.8 22.9-59.7 8.8z"/><circle cx="161.2" cy="220" r="27.5"/><path d="m241 150.7-33.2-24.7 28.5-33.6c2.9-3.4 7.8-4 11.2-1.4l15.5 11.5c3.4 2.5 4.2 7.5 1.8 11.2z"/><path d="m266.7 227.4-6-40.9 43.9-3.6c4.4-.4 8.4 2.7 9 6.9l2.8 19.1c.6 4.2-2.3 8.3-6.6 9.2z"/><path d="m230.6 299.8 24.6-33.1 33.6 28.5c3.4 2.9 4 7.8 1.4 11.2l-11.5 15.5c-2.5 3.4-7.5 4.2-11.2 1.8z"/><path d="m153.9 325.5 40.9-6 3.6 43.9c.4 4.4-2.7 8.4-6.9 9l-19.1 2.8c-4.2.6-8.3-2.3-9.2-6.6z"/><path d="m81.5 289.4 33.1 24.6-28.5 33.6c-2.9 3.4-7.8 4-11.2 1.4l-15.5-11.5c-3.4-2.5-4.2-7.5-1.8-11.2z"/><path d="m55.8 212.7 6 40.9-43.9 3.6c-4.4.4-8.4-2.7-9-6.9l-2.8-19.1c-.6-4.2 2.3-8.3 6.6-9.2z"/><path d="m91.9 140.3-24.6 33.1-33.6-28.5c-3.4-2.9-4-7.8-1.4-11.2l11.5-15.5c2.5-3.4 7.5-4.2 11.2-1.8z"/><path d="m168.6 114.6-40.9 6-3.6-43.9c-.4-4.4 2.7-8.4 6.9-9l19.1-2.8c4.2-.6 8.3 2.3 9.2 6.6z"/><path d="m449.2 264.7c-39.8-29.6-96.1-21.3-125.7 18.5-29.5 39.8-21.3 96.1 18.5 125.7s96.1 21.3 125.7-18.5 21.3-96.1-18.5-125.7zm-84.4 113.5c-22.8-17-27.6-49.3-10.6-72.1s49.3-27.6 72.1-10.6 27.6 49.3 10.6 72.1c-16.9 22.8-49.2 27.6-72.1 10.6z"/><path d="m419.6 304.6c-17.8-13.2-43-9.5-56.2 8.3s-9.5 43 8.3 56.2 43 9.5 56.2-8.3 9.5-43-8.3-56.2zm-42.1 56.6c-13.4-10-16.2-29-6.2-42.5 10-13.4 29-16.2 42.5-6.2s16.2 29 6.2 42.5-29 16.2-42.5 6.2z"/><circle cx="395.6" cy="336.8" r="19.5"/><path d="m452.3 287.5-23.5-17.5 20.3-23.9c2-2.4 5.6-2.8 8-1l11 8.2c2.4 1.8 3 5.3 1.3 7.9z"/><path d="m470.6 342-4.3-29.1 31.2-2.5c3.1-.3 5.9 2 6.4 4.9l2 13.6c.4 3-1.6 5.9-4.7 6.5z"/><path d="m444.9 393.5 17.5-23.6 23.9 20.3c2.4 2 2.8 5.6 1 8l-8.2 11c-1.8 2.4-5.3 3-7.9 1.3z"/><path d="m390.4 411.8 29.1-4.3 2.5 31.2c.3 3.1-2 5.9-4.9 6.4l-13.6 2c-3 .4-5.9-1.6-6.5-4.7z"/><path d="m338.9 386.1 23.6 17.5-20.3 23.9c-2 2.4-5.6 2.8-8 1l-11-8.2c-2.4-1.8-3-5.3-1.3-7.9z"/><path d="m320.6 331.6 4.3 29.1-31.2 2.5c-3.1.3-5.9-2-6.4-4.9l-2-13.6c-.4-3 1.6-5.9 4.7-6.5z"/><path d="m346.3 280.1-17.5 23.6-23.9-20.3c-2.4-2-2.8-5.6-1-8l8.2-11c1.8-2.4 5.3-3 7.9-1.3z"/><path d="m400.8 261.8-29.1 4.3-2.5-31.2c-.3-3.1 2-5.9 4.9-6.4l13.6-2c3-.4 5.9 1.6 6.5 4.7z"/></svg>