<svg viewBox="0 0 64 64" xmlns="http://www.w3.org/2000/svg"><path d="m11.19 41.32 2.65 11.53c.18.76.48 1.48.9 2.13l2.4 3.72c.52.81 1.42 1.3 2.38 1.3h24.94c.97 0 1.86-.48 2.38-1.3l2.4-3.73c.42-.66.73-1.37.9-2.13l2.65-11.53c.22-.95-.06-1.92-.75-2.61l-7.22-7.23 4.06-4.06c.65-.64 1-1.5 1-2.41v-9.75c0-.85-.3-1.67-.85-2.31l.97-.88c.76-.69 1-1.78.6-2.72l-1.07-2.52c-.39-.93-1.3-1.53-2.31-1.53h-5.13l-.2-.22c-.62-.68-1.5-1.07-2.41-1.07h-14.98c-.92 0-1.8.39-2.41 1.07l-.2.22h-5.13c-1.01 0-1.92.6-2.31 1.53l-1.07 2.52c-.4.94-.16 2.04.6 2.72l.97.88c-.55.65-.85 1.46-.85 2.31v9.75c0 .91.35 1.77 1 2.41l4.06 4.06-7.22 7.23c-.69.69-.97 1.66-.75 2.61zm1.95-.45c-.03-.14.07-.25.11-.37l10.49-6.36-8.34 16.53zm7.62-20.28c-.03-.35.1-.69.34-.95l.91-.95s.07-.03.11 0l1.84 1.53-3.05 2.35zm.75 9.89-.42-5.52 4.45-3.42 5.05 4.2c.82.68 2 .68 2.82 0l5.05-4.2 4.45 3.42-.42 5.52h-4.69s0 0-.01 0zm21.58-7.91-3.05-2.35 1.84-1.53s.08-.02.11 0l.91.95c.24.25.37.6.34.95zm-.49 23.44-3.91-4.2c-.62-.67-1.5-1.05-2.41-1.05h-8.54c-.91 0-1.79.38-2.41 1.05l-3.91 4.2c-.61.66-.95 1.51-.95 2.41v.58h-1.97l8.34-16.52h10.36l8.34 16.52h-1.98v-.58c0-.9-.34-1.76-.95-2.41zm-6.92 11.26.39.73h-8.13l.39-.73c.45-.85.43-1.89-.06-2.72l-2.48-4.2c-.49-.83-1.4-1.35-2.37-1.35h-.96v-.58c0-.39.15-.76.41-1.05l3.91-4.2c.24-.26.59-.41.95-.41h8.54c.36 0 .7.15.95.41l3.91 4.2c.27.29.41.66.41 1.05v.58h-.96c-.97 0-1.88.52-2.37 1.35l-2.48 4.2c-.49.83-.51 1.87-.06 2.72zm-16.85.34-2.4-3.72c-.09-.14-.11-.3-.19-.44l1.23-2.45h5.94c.27 0 .51.14.65.37l2.48 4.2c.14.23.14.52.02.76l-.89 1.67h-6.14c-.29 0-.55-.14-.7-.38zm26.34 0c-.15.24-.42.38-.7.38h-6.14l-.89-1.67c-.13-.24-.12-.53.02-.76l2.48-4.2c.13-.23.38-.37.65-.37h5.94l1.23 2.45c-.07.14-.1.31-.19.45zm3.43-6.94-8.34-16.53 10.49 6.36c.04.13.14.24.11.37zm-3.1-15.7-4.12-2.5h1.63l2.5 2.5zm3.16-24.4-.96.88-1.61-1.78 1.78-1.68.89 2.12c.07.16.03.35-.1.46zm-2.95-3.3-.97.92-.83-.92zm-25.63 0-.8.88-.96-.88h1.75zm-4.85 2.83.9-2.14 1.81 1.66-1.65 1.82-.96-.88c-.13-.12-.17-.3-.1-.46zm1.29 15.88c-.26-.26-.41-.63-.41-1v-9.73c0-.4.15-.77.41-1.07l.59-.64 5.98-6.59.49-.54c.24-.26.58-.41.93-.41h14.98c.35 0 .69.15.93.41l.49.54 6.56 7.23c.27.29.41.67.41 1.07v9.75c0 .37-.15.74-.41 1l-2.86 2.86.61-8.12c.07-.92-.26-1.82-.9-2.49l-.91-.95c-.75-.78-1.99-.85-2.82-.15l-8.47 7.04c-.08.06-.18.06-.26 0l-8.47-7.04c-.83-.69-2.07-.62-2.82.15l-.91.95c-.64.66-.97 1.57-.9 2.49l.61 8.13-2.86-2.86zm4.48 6.47h1.63l-4.12 2.5 2.5-2.5z"/></svg>